<svg xmlns="http://www.w3.org/2000/svg" viewBox="0 0 512 512" id="Tryhackme--Streamline-Simple-Icons" width="512" height="512">
  <title>TryHackMe</title>
  <path fill="#e5e5e6" d="M233.72583333333333 0C164.62333333333333 0 107.027 49.88916666666667 94.95316666666666 115.52016666666667a98.79583333333333 98.79583333333333 0 0 0 -89.6695 98.25 98.79583333333333 98.79583333333333 0 0 0 98.68666666666665 98.68666666666665h147.61516666666665a13.645833333333332 13.645833333333332 0 1 0 0 -27.291666666666664H103.9485a71.4605 71.4605 0 0 1 -71.395 -71.395A71.4605 71.4605 0 0 1 143.88166666666666 154.57999999999998a13.645833333333332 13.645833333333332 0 0 0 15.283333333333331 -22.597499999999997 97.988 97.988 0 0 0 -36.68 -15.064999999999998 114.03549999999998 114.03549999999998 0 0 1 111.26266666666666 -89.604 113.99183333333333 113.99183333333333 0 0 1 112.96566666666666 99.77833333333334 98.00983333333332 98.00983333333332 0 0 0 -10.654666666666666 6.659166666666666 13.645833333333332 13.645833333333332 0 1 0 15.960166666666666 22.117166666666662 70.84916666666666 70.84916666666666 0 0 1 41.74533333333333 -13.449333333333332 71.56966666666666 71.56966666666666 0 0 1 69.93216666666666 56.98499999999999 13.645833333333332 13.645833333333332 0 0 0 26.745833333333334 -5.480166666666666 98.9705 98.9705 0 0 0 -96.678 -78.81833333333333 99.12333333333333 99.12333333333333 0 0 0 -20.91633333333333 2.2925C361.47266666666667 50.827999999999996 303.48333333333335 0 233.72583333333333 0zm113.35866666666666 232.30666666666667a20.195833333333333 20.195833333333333 0 0 0 -10.087 2.3579999999999997 19.933833333333332 19.933833333333332 0 0 0 -6.833833333333333 6.331666666666666 27.72833333333333 27.72833333333333 0 0 0 -3.820833333333333 9.322833333333332 52.181666666666665 52.181666666666665 0 0 0 -1.1789999999999998 11.222333333333333c0 3.951833333333333 0.39299999999999996 7.707166666666666 1.1789999999999998 11.287833333333333 0.7859999999999999 3.5806666666666667 2.0741666666666667 6.7028333333333325 3.820833333333333 9.388333333333332a19.628166666666665 19.628166666666665 0 0 0 6.833833333333333 6.4845c2.7728333333333333 1.5938333333333332 6.135166666666667 2.4016666666666664 10.087 2.4016666666666664 3.9299999999999997 0 7.292333333333334 -0.8078333333333333 10.043333333333333 -2.4016666666666664a19.5845 19.5845 0 0 0 6.746499999999999 -6.462666666666666c1.7466666666666666 -2.707333333333333 2.9911666666666665 -5.8295 3.777166666666666 -9.410166666666665 0.7859999999999999 -3.5806666666666667 1.1789999999999998 -7.336 1.1789999999999998 -11.287833333333333 0 -3.9299999999999997 -0.39299999999999996 -7.6853333333333325 -1.1789999999999998 -11.222333333333333a27.75016666666666 27.75016666666666 0 0 0 -3.777166666666666 -9.301 19.671833333333332 19.671833333333332 0 0 0 -6.746499999999999 -6.3534999999999995 20.021166666666666 20.021166666666666 0 0 0 -10.043333333333333 -2.3579999999999997zm141.611 0a20.195833333333333 20.195833333333333 0 0 0 -10.087 2.3579999999999997 19.933833333333332 19.933833333333332 0 0 0 -6.833833333333333 6.331666666666666 27.72833333333333 27.72833333333333 0 0 0 -3.820833333333333 9.322833333333332 52.181666666666665 52.181666666666665 0 0 0 -1.1571666666666667 11.222333333333333c0 3.951833333333333 0.3711666666666667 7.707166666666666 1.1571666666666667 11.287833333333333 0.7859999999999999 3.5806666666666667 2.0741666666666667 6.7028333333333325 3.820833333333333 9.388333333333332a19.628166666666665 19.628166666666665 0 0 0 6.833833333333333 6.4845c2.7728333333333333 1.5938333333333332 6.135166666666667 2.4016666666666664 10.087 2.4016666666666664 3.9299999999999997 0 7.292333333333334 -0.8078333333333333 10.043333333333333 -2.4016666666666664a19.5845 19.5845 0 0 0 6.768333333333333 -6.462666666666666c1.7029999999999998 -2.707333333333333 2.9693333333333336 -5.8295 3.7553333333333327 -9.410166666666665 0.7859999999999999 -3.5806666666666667 1.1789999999999998 -7.336 1.1789999999999998 -11.287833333333333 0 -3.9299999999999997 -0.39299999999999996 -7.6853333333333325 -1.1789999999999998 -11.222333333333333a27.75016666666666 27.75016666666666 0 0 0 -3.777166666666666 -9.301 19.671833333333332 19.671833333333332 0 0 0 -6.724666666666666 -6.3534999999999995 19.999333333333333 19.999333333333333 0 0 0 -10.065166666666666 -2.3579999999999997z"/>
</svg>
